<svg width="55" height="57" viewBox="0 0 55 57" fill="none" xmlns="http://www.w3.org/2000/svg">
<g clip-path="url(#clip0_1_9)">
<path d="M32.5111 28.6466C32.2981 28.356 32.0388 28.1042 31.798 27.8523C31.1774 27.271 30.4735 26.8545 29.8807 26.2442C28.5007 24.8298 28.1951 22.4952 29.075 20.703C28.1951 20.9258 27.4263 21.4295 26.7687 21.9817C24.3699 23.9967 23.4252 27.552 24.5551 30.6035C24.5922 30.7004 24.6292 30.7972 24.6292 30.9232C24.6292 31.1363 24.4903 31.33 24.305 31.4075C24.092 31.5044 23.8697 31.4463 23.6938 31.2913C23.6412 31.2452 23.5972 31.1894 23.5641 31.1266C22.5175 29.7413 22.3508 27.7554 23.0547 26.1667C21.5079 27.4842 20.6651 29.7123 20.7855 31.8144C20.8411 32.2988 20.8967 32.7832 21.0541 33.2675C21.1838 33.8488 21.4338 34.43 21.7117 34.9434C22.712 36.6194 24.444 37.8206 26.3056 38.0628C28.2877 38.3243 30.4087 37.9465 31.9276 36.5128C33.6226 34.9047 34.2153 32.3278 33.3447 30.1191L33.2243 29.8673C33.0298 29.4216 32.5111 28.6466 32.5111 28.6466ZM29.5844 34.7497C29.325 34.9822 28.899 35.2341 28.5655 35.3309C27.5282 35.7184 26.4909 35.1759 25.8796 34.5366C26.9818 34.2653 27.6394 33.4128 27.8339 32.5507C27.9913 31.7757 27.6949 31.1363 27.5745 30.3904C27.4634 29.6735 27.4819 29.0632 27.732 28.3948C27.908 28.7629 28.0932 29.131 28.3155 29.4216C29.0286 30.3904 30.1493 30.8166 30.3902 32.1341C30.4272 32.2697 30.4457 32.4053 30.4457 32.5507C30.4735 33.345 30.1401 34.2169 29.5844 34.7497Z" fill="#5300E4"/>
</g>
<defs>
<clipPath id="clip0_1_9">
<rect width="54.3456" height="56.8418" fill="white"/>
</clipPath>
</defs>
</svg>
