<svg width="207" height="45" viewBox="0 0 207 45" fill="none" xmlns="http://www.w3.org/2000/svg">
<g clip-path="url(#clip0_20_139)">
<mask id="mask0_20_139" style="mask-type:luminance" maskUnits="userSpaceOnUse" x="0" y="0" width="207" height="45">
<path d="M207 0H0V45H207V0Z" fill="white"/>
</mask>
<g mask="url(#mask0_20_139)">
<path d="M180.775 21.9524C180.719 21.9524 180.67 21.9792 180.655 22.0165C179.643 24.5203 178.851 26.4572 178.28 27.8282C178.181 28.0657 177.872 28.2275 177.52 28.2275H173.594C173.245 28.2275 172.938 28.0676 172.837 27.833L168.434 17.6956C168.279 17.3375 168.66 16.9756 169.193 16.9756H172.25C172.605 16.9756 172.917 17.1422 173.014 17.3835L175.584 23.8702C175.599 23.9075 175.648 23.9343 175.704 23.9343C175.759 23.9343 175.808 23.9085 175.823 23.8702C176.354 22.5518 176.763 21.5598 177.05 20.8954L178.483 17.3796C178.581 17.1403 178.892 16.9756 179.244 16.9756H182.62C182.976 16.9756 183.286 17.1412 183.383 17.3815L185.983 23.8702C185.998 23.9075 186.047 23.9343 186.103 23.9343C186.158 23.9343 186.207 23.9085 186.222 23.8702C187.357 21.0782 188.224 18.9163 188.824 17.3854C188.919 17.1431 189.231 16.9756 189.587 16.9756H192.36C192.893 16.9756 193.274 17.3375 193.119 17.6956L188.717 27.833C188.615 28.0676 188.307 28.2275 187.959 28.2275H184.095C183.744 28.2275 183.435 28.0647 183.335 27.8282L180.899 22.0156C180.884 21.9782 180.835 21.9524 180.779 21.9524H180.775Z" fill="black"/>
<path d="M168.126 22.9213C168.126 24.0521 167.782 25.0354 167.093 25.8722C166.424 26.709 165.495 27.3476 164.305 27.788C163.115 28.2285 161.779 28.4487 160.296 28.4487H159.794C158.311 28.4487 156.975 28.2285 155.785 27.788C154.595 27.3476 153.655 26.709 152.966 25.8722C152.298 25.0354 151.964 24.0521 151.964 22.9213V22.2827C151.964 21.152 152.298 20.1687 152.966 19.3319C153.655 18.4951 154.595 17.8564 155.785 17.416C156.975 16.9756 158.311 16.7554 159.794 16.7554H160.296C161.777 16.7554 163.115 16.9756 164.305 17.416C165.495 17.8564 166.424 18.4951 167.093 19.3319C167.782 20.1687 168.126 21.152 168.126 22.2827V22.9213ZM163.491 21.7102C163.491 20.8149 163.166 20.1323 162.52 19.6622C161.893 19.1921 161.069 18.9575 160.045 18.9575C159.021 18.9575 158.186 19.1921 157.539 19.6622C156.913 20.1323 156.6 20.8149 156.6 21.7102V23.4939C156.6 24.3891 156.913 25.0718 157.539 25.5419C158.186 26.012 159.022 26.2465 160.045 26.2465C161.068 26.2465 161.893 26.012 162.52 25.5419C163.166 25.0718 163.491 24.3891 163.491 23.4939V21.7102Z" fill="black"/>
<path d="M143.108 12.5321C142.773 12.4556 142.379 12.3876 141.926 12.3301C141.237 12.242 140.631 12.198 140.109 12.198C136.894 12.198 135.285 13.2991 135.285 15.5012V16.9766H134.225C133.787 16.9766 133.432 17.2256 133.432 17.5338V18.5765C133.432 18.8838 133.786 19.1337 134.225 19.1337H135.285V27.6713C135.285 27.9786 135.641 28.2285 136.078 28.2285H139.066C139.503 28.2285 139.858 27.9786 139.858 27.6713V19.735C139.858 19.4277 140.213 19.1778 140.651 19.1778H142.793C143.23 19.1778 143.586 18.9288 143.586 18.6206V17.5329C143.586 17.2256 143.23 16.9757 142.793 16.9757H140.651C140.214 16.9757 139.858 16.7258 139.858 16.4184V15.6984C139.858 15.1699 140.026 14.8176 140.36 14.6414C140.715 14.4652 141.143 14.3771 141.644 14.3771C141.874 14.3771 142.187 14.4068 142.584 14.4652C143.087 14.5208 143.586 14.2565 143.586 13.8975V13.0195C143.586 12.8002 143.403 12.5992 143.108 12.5312V12.5321Z" fill="black"/>
<path d="M149.267 12.374H146.28C145.842 12.374 145.487 12.6235 145.487 12.9313V27.6712C145.487 27.9789 145.842 28.2284 146.28 28.2284H149.267C149.705 28.2284 150.06 27.9789 150.06 27.6712V12.9313C150.06 12.6235 149.705 12.374 149.267 12.374Z" fill="black"/>
<path d="M102.944 17.4179C103.087 17.8871 103.982 18.0345 104.506 17.7272C105.61 17.08 106.913 16.7563 108.418 16.7563C110.046 16.7563 111.382 17.0646 112.427 17.6812C113.492 18.2978 114.024 19.193 114.024 20.3678V27.6712C114.024 27.9786 113.67 28.2285 113.232 28.2285H110.244C109.807 28.2285 109.451 27.9786 109.451 27.6712V21.0716C109.451 20.499 109.212 20.0289 108.731 19.6622C108.272 19.2802 107.677 19.0896 106.945 19.0896C106.131 19.0896 105.432 19.3099 104.847 19.7503C104.263 20.1763 103.97 20.6972 103.97 21.3138V27.6712C103.97 27.9786 103.614 28.2285 103.177 28.2285H100.189C99.7522 28.2285 99.3968 27.9786 99.3968 27.6712V17.5338C99.3968 17.2265 99.7522 16.9766 100.189 16.9766H102.169C102.543 16.9766 102.867 17.1613 102.944 17.4179Z" fill="black"/>
<path fill-rule="evenodd" clip-rule="evenodd" d="M92.1802 19.42C92.6391 19.7283 92.8693 20.1323 92.8693 20.6312V20.8504L92.8665 20.8734C92.8516 20.9959 92.8366 21.1147 92.8366 21.2152C92.8366 21.3062 92.7317 21.3799 92.6024 21.3808C90.3431 21.3875 88.4909 21.4833 87.0447 21.6671C85.5412 21.8576 84.3618 22.232 83.5052 22.7902C82.6704 23.3331 82.2523 24.1258 82.2523 25.1685C82.2523 26.4457 82.7644 27.3113 83.7871 27.767C84.8099 28.2218 86.1159 28.4497 87.7024 28.4497C89.289 28.4497 90.5623 28.1308 91.7389 27.4922C92.1557 27.2663 92.8366 27.4568 92.8366 27.8273C92.8366 28.0495 93.0926 28.2295 93.4099 28.2295H96.6171C97.0542 28.2295 97.4097 27.9796 97.4097 27.6722V20.3688C97.4097 19.194 96.8772 18.2988 95.8122 17.6822C94.9801 17.191 94.0745 16.9976 92.8788 16.9057C92.157 16.8071 91.3495 16.7573 90.4574 16.7573H89.7997C88.4215 16.7573 87.1999 16.8971 86.135 17.1757C85.07 17.4543 84.2352 17.844 83.6292 18.3429C83.0449 18.8417 82.7522 19.4075 82.7522 20.0385C82.7522 20.2692 83.0545 20.4349 83.3827 20.4349H86.9807C87.1196 20.4349 87.2312 20.3564 87.2312 20.2587C87.2312 20.0825 87.3361 19.892 87.5445 19.6862C87.7746 19.4803 88.0974 19.3118 88.5155 19.1797C88.9335 19.0332 89.4347 18.9595 90.0189 18.9595C91.0213 18.9595 91.7417 19.1136 92.1802 19.4219V19.42ZM92.0426 23.1942C92.4798 23.1847 92.8366 23.4355 92.8366 23.7429V24.0732C92.8366 24.1 92.8339 24.1258 92.8284 24.1517C92.7535 24.4763 92.5806 24.7779 92.3055 25.0565C91.95 25.4385 91.502 25.7315 90.9586 25.9373C90.4152 26.1432 89.8732 26.2456 89.3298 26.2456C88.5359 26.2456 87.9408 26.1499 87.5445 25.9593C87.1686 25.7535 86.9807 25.4088 86.9807 24.9243C86.9807 24.3078 87.4614 23.8673 88.4215 23.6031C89.2618 23.3647 90.4683 23.2278 92.0426 23.1933V23.1942Z" fill="black"/>
<path d="M69.5139 28.2275C69.0767 28.2275 68.7213 27.9776 68.7213 27.6702V13.6791C68.7213 13.3717 69.0767 13.1218 69.5139 13.1218H72.7837C73.2208 13.1218 73.5763 13.3717 73.5763 13.6791V24.8515C73.5763 25.1588 73.9317 25.4087 74.3688 25.4087H79.8639C80.2329 25.4087 80.5543 25.5887 80.636 25.8415L81.1889 27.5458C81.302 27.8943 80.9247 28.2265 80.4168 28.2265H69.5139V28.2275Z" fill="black"/>
<path d="M131.227 26.5539C130.455 25.9669 129.337 25.673 127.876 25.673H122.3C121.632 25.673 121.13 25.5926 120.797 25.4308C120.484 25.269 120.327 25.0421 120.327 24.7481C120.327 24.5135 120.494 24.3 120.828 24.1095C121.184 23.919 121.674 23.8232 122.3 23.8232H124.461C125.694 23.8232 126.779 23.6691 127.719 23.3608C128.679 23.0381 129.42 22.6121 129.943 22.0835C130.464 21.5407 130.726 20.9461 130.726 20.2998C130.726 19.9025 130.622 19.5291 130.418 19.1806H131.352C131.79 19.1806 132.145 18.9307 132.145 18.6233V17.5807C132.145 17.2733 131.791 17.0234 131.352 17.0234H126.522C126.514 17.0215 126.506 17.0196 126.497 17.0186C125.725 16.8425 124.848 16.7544 123.866 16.7544H123.365C121.13 16.7544 119.429 17.0847 118.26 17.7454C117.112 18.406 116.537 19.2572 116.537 20.2998C116.537 20.8427 116.736 21.3568 117.132 21.8413C117.241 21.9706 117.364 22.0941 117.497 22.2118C117.921 22.5843 117.798 23.2756 117.283 23.5848C117.129 23.6777 116.985 23.7792 116.85 23.8893C116.349 24.2857 116.098 24.7558 116.098 25.2987C116.098 25.6807 116.224 26.033 116.474 26.3557C116.502 26.3901 116.53 26.4246 116.559 26.4581C116.888 26.8315 116.831 27.4309 116.379 27.7344C116.187 27.8627 116.01 28.0054 115.846 28.1614C115.408 28.5875 115.189 29.0643 115.189 29.5928C115.189 30.4593 115.616 31.1343 116.473 31.6188C117.35 32.1176 118.424 32.3675 119.699 32.3675H126.308C127.436 32.3675 128.458 32.2133 129.378 31.905C130.317 31.6111 131.058 31.1927 131.602 30.6498C132.145 30.1069 132.416 29.4971 132.416 28.8221C132.416 27.8828 132.02 27.1264 131.226 26.5539H131.227ZM121.705 19.1116C122.227 18.8177 122.884 18.6712 123.678 18.6712C124.472 18.6712 125.161 18.8177 125.683 19.1116C126.205 19.3902 126.466 19.7866 126.466 20.3008C126.466 20.8149 126.205 21.218 125.683 21.5119C125.161 21.7906 124.493 21.9304 123.678 21.9304C122.864 21.9304 122.227 21.7906 121.705 21.5119C121.184 21.218 120.922 20.8149 120.922 20.3008C120.922 19.7866 121.184 19.3902 121.705 19.1116ZM127.594 30.0332C127.197 30.2678 126.728 30.3856 126.184 30.3856H120.922C120.463 30.3856 120.065 30.2755 119.732 30.0552C119.398 29.835 119.231 29.5784 119.231 29.2845C119.231 28.9906 119.398 28.734 119.732 28.5138C120.065 28.3079 120.463 28.2055 120.922 28.2055H126.372C126.916 28.2055 127.354 28.3012 127.688 28.4917C128.021 28.6976 128.189 28.9465 128.189 29.2405C128.189 29.5488 127.99 29.813 127.594 30.0332Z" fill="black"/>
<path d="M46.5818 23.1865H52.1013C53.184 23.1865 54.061 23.8031 54.061 24.5643V26.8535C54.061 27.6147 53.184 28.2313 52.1013 28.2313H47.2872C46.767 28.2313 46.2686 28.3768 45.9009 28.6353L37.6399 34.4423C37.2723 34.7008 36.7738 34.8463 36.2536 34.8463H32.2825C31.2202 34.8463 30.35 34.2508 30.3228 33.504L30.237 31.1668C30.2084 30.3922 31.0936 29.7527 32.1967 29.7527H35.6149C36.1351 29.7527 36.6335 29.6071 37.0012 29.3486L45.1927 23.5896C45.5604 23.3311 46.0589 23.1855 46.5791 23.1855L46.5818 23.1865Z" fill="black"/>
<path d="M30.1934 10.1538H35.7129C36.7956 10.1538 37.6726 10.7704 37.6726 11.5316V13.8208C37.6726 14.582 36.7956 15.1986 35.7129 15.1986H30.8988C30.3786 15.1986 29.8802 15.3441 29.5125 15.6026L21.2515 21.4105C20.8839 21.669 20.3854 21.8146 19.8652 21.8146H15.8941C14.8318 21.8146 13.9616 21.219 13.9344 20.4722L13.8486 18.1351C13.82 17.3605 14.7052 16.7219 15.8083 16.7219H19.2265C19.7467 16.7219 20.2451 16.5764 20.6128 16.3179L28.8043 10.5588C29.172 10.3003 29.6705 10.1548 30.1907 10.1548L30.1934 10.1538Z" fill="black"/>
<path d="M46.5818 13.1028H52.1013C53.184 13.1028 54.061 13.7194 54.061 14.4805V16.7698C54.061 17.531 53.184 18.1476 52.1013 18.1476H47.2872C46.767 18.1476 46.2686 18.2931 45.9009 18.5516L37.6399 24.3595C37.2722 24.618 36.7738 24.7635 36.2536 24.7635H31.4286C30.9233 24.7635 30.4372 24.9004 30.0722 25.1465L20.798 31.3948C20.4331 31.6409 19.9469 31.7778 19.4416 31.7778H16.0616C14.9789 31.7778 14.1019 31.1602 14.1019 30.4V28.0476C14.1019 27.2864 14.9789 26.6698 16.0616 26.6698H19.4171C19.9374 26.6698 20.4358 26.5243 20.8035 26.2658L29.6105 20.074C29.9782 19.8154 30.4767 19.6699 30.9969 19.6699H35.6149C36.1351 19.6699 36.6335 19.5244 37.0012 19.2659L45.1927 13.5068C45.5604 13.2483 46.0589 13.1028 46.5791 13.1028H46.5818Z" fill="black"/>
</g>
</g>
<defs>
<clipPath id="clip0_20_139">
<rect width="207" height="45" fill="white"/>
</clipPath>
</defs>
</svg>
